<svg width="128" height="128" viewBox="0 0 128 128" fill="none" xmlns="http://www.w3.org/2000/svg">
  <rect width="128" height="128" rx="32" fill="#808080"/>
  <rect x="16" y="24" width="96" height="80" rx="8" fill="#289EEC"/>
  <rect x="24" y="32" width="80" height="64" fill="#212121"/>
  <circle cx="64" cy="64" r="24" fill="#1f7be5"/>
  <text x="41.8" y="86" font-family="Arial" font-size="24" font-weight="bold" fill="#FFFFFF" transform="rotate(-30 44 76)">S</text>
  <path d="M58 56L70 64L58 72V56Z" fill="#FFFFFF" transform="rotate(-30 64 64)"/>
  <text x="69" y="66" font-family="Arial" font-size="24" font-weight="bold" fill="#FFFFFF" transform="rotate(-30 72 56)">M</text>
  <rect x="18" y="36" width="4" height="4" fill="#000000"/>
  <rect x="18" y="44" width="4" height="4" fill="#000000"/>
  <rect x="18" y="52" width="4" height="4" fill="#000000"/>
  <rect x="18" y="60" width="4" height="4" fill="#000000"/>
  <rect x="18" y="68" width="4" height="4" fill="#000000"/>
  <rect x="18" y="76" width="4" height="4" fill="#000000"/>
  <rect x="18" y="84" width="4" height="4" fill="#000000"/>
  <rect x="18" y="92" width="4" height="4" fill="#000000"/>
  <rect x="105.8" y="36" width="4" height="4" fill="#000000"/>
  <rect x="105.8" y="44" width="4" height="4" fill="#000000"/>
  <rect x="105.8" y="52" width="4" height="4" fill="#000000"/>
  <rect x="105.8" y="60" width="4" height="4" fill="#000000"/>
  <rect x="105.8" y="68" width="4" height="4" fill="#000000"/>
  <rect x="105.8" y="76" width="4" height="4" fill="#000000"/>
  <rect x="105.8" y="84" width="4" height="4" fill="#000000"/>
  <rect x="105.8" y="92" width="4" height="4" fill="#000000"/>
</svg>